<?xml version="1.0" encoding="utf-8"?>
<!-- Generator: Adobe Illustrator 24.3.0, SVG Export Plug-In . SVG Version: 6.00 Build 0)  -->
<svg version="1.1" id="Calque_1" xmlns="http://www.w3.org/2000/svg" xmlns:xlink="http://www.w3.org/1999/xlink" x="0px" y="0px"
	 viewBox="0 0 100 100" style="enable-background:new 0 0 100 100;" xml:space="preserve">
<g>
	<path d="M68.8,81.6c-11.6,0.1,1.8,1.4,4.5,2c-0.8,0.3-1.6,0.6-2.4,1c1.7,0.3,4.1,1.1,5-0.5c-1.1,0.5-1.8-0.3-2.7-0.4
		c1.1-0.6,2.3-0.9,3.6-1.1c-0.2-0.2-0.4-0.4-0.7-0.7c1.3-0.6,2.4-0.3,3.5,0.2l0,0C79.4,82,78,82.3,78,82.3c-0.1,1.4,0,1.5,1.1,1.5
		c-0.1-0.4-0.3-0.7-0.5-1c0.6-0.1,1.3-0.2,2-0.3c0.1,1.1-0.4,2-1.4,2.5c0.7,1,1.9,1.3-3.2,3.2c0-0.6,0.7-0.9,0.6-1.4
		c2.2-0.3,0.6-2.2,0,0c-0.5-0.1-0.9,0.1-1.3,0.3c-0.2-0.3-0.4-0.6-0.8-0.3c0.2,0.4,0.6,0.2,0.8,0.3c-1,0.7-2.1,0.9-3.3,0.7
		c1.5,0.1,2.7,0.7,3.7,1.7c-2,0.7-4.1,1.3-6.2,1.7l0,0c-0.4-0.9-4.2-0.5-4.7,0.2c0,0.3,0.2,0.3,0.4,0.4c-0.8-1.8-22.4,7-24.5,7.8
		c0-1,1-1.4,1.1-2.2c-0.8,0.2-1.4-0.2-1.7-1.1c-0.7-0.1-1.6,0.2-2.4,0.5c0.1-0.9,0.6-1.4,1.5-1.6c-0.8-0.5-1.5-1.1-2-1.9
		c-0.3,0.1-0.6,0.2-0.9,0.3c-0.3-3,5.6-2.3,6.9-3.6c-1.1-0.5-1.9,0.3-2.8,0.4c-0.3-0.6,0.2-1.3-0.1-1.9c-0.7,0.2-1.3,0.1-1.6-0.4
		c0-0.7,1-0.3,1.2-1c-0.2-0.6-0.8-0.7-1.2-1c-0.4,0.2,0.2,0.5-0.5,0.9c-0.2,0.1-0.9,0.2-1.6,0.3c-0.3-0.7,0.8-0.5,0.5-1.3
		c-0.5-0.4-1.3-0.2-1.8-0.3c-0.9,0.3-4.1,0.9-5.8,0.2c-0.1-0.5,0.5-0.4,0.6-0.9c-2.8-2.1-3.1,1.5-3.3-2.1c-0.4-0.9-1.2-1-2.4-0.5
		c0-0.1-0.1-0.3-0.1-0.5c-0.1,0.3,0.1,0.4,0.1,0.4c-1.8,2.1-0.5-2.5-0.5-2.5c0.6,0.1,0.3,0.9,0.9,1c0.9-0.2,0.3-1.1,0.8-1.5
		c0.4,0.1,0.7,0.1,1.1,0.2c0.7-0.2,0.3-0.9,0.7-1.3c1,1,1.9,2,2.8,3l-0.1-0.1c1.2-1.2,1.8-2.7,2-4.4c1.4,0.1,0.7-1.1,0,0
		c-0.5-0.6,1.2-3.3,1.8-3.5c-0.1,0.7,0.2,0.9,1,0.7c0.5,0.5,1,1.1,1.6,1.6c0.8,0,1.5-0.5,2.2-0.1c0.2-0.5,0.4-0.8,0.6-1.2l0,0
		c1.6,0.2,3.1,0,4.6-0.6c0.2,0.8-0.6,1.1-0.9,1.7c0.3,0.3,0.5,0.5,0.7,0.8c-1.2-0.1-2.3-0.9-3.8-0.9c-0.4,1.3-1.6,1.5-2.7,1.8
		c0.3,0.9,0.6,1.7,0.8,2.5c0.9-0.3,1.4-0.9,1.7-1.7c0.3,0.1,0.7,0.1,1,0.1c0.3-0.4,0.7-0.7,0.9-1c0.7-0.3,1.5,0.2,2.1-0.2
		c0-0.2-0.1-0.4-0.1-0.6c0.6-0.2,7.5,0.1,6.3-2.2c-2.1,0.4-4.1,0.3-6.1-0.3c0.3-0.7,1-0.8,1.6-1.4c-1.4-1.3-2.5-1.2-3.2,0.4l0,0
		c-0.7-0.7-0.7-0.7-0.1-1.8c0.9-0.3,2,0,2.8-0.9l0,0c0.6,0.1,1.1,0.3,1.7,0.4c0.2,0.3-0.3,0.5,0,0.9c1.5-0.2,2.7-1.6,4.2-1.8
		c0.4-0.6,0.6-1.1,0.7-1.6c-0.9-0.5-1.8-0.3-2.8,0.5c0-0.2-0.1-0.5-0.1-0.7c-0.5-0.9-6.2,1.1-4.9-1.2c-0.8-0.2-1.7-0.2-2.5,0
		c0.1-0.6,0.9-0.3,1.1-0.8c1.2,0.2,2.4,0.3,3.6-0.5c-0.5-0.8-1.4-1.2-2-1.9c0.4-0.4,0.7-0.7,1.2-1.1c-1,0.1-1.9,0.1-2.7,0.2
		c-0.2,0.5,0,0.9,0.6,1.2c-1.1,1-1.1,1-0.7,2.1c-1.4-0.5-1.4-0.5-2.5-0.1c-0.9-0.9,3.1-1.4,1.4-3.1c-1,0.1-1.7,0.7-2.4,1.4
		c-2-0.3-3.9-0.3-5.3,1.2c-2.8-1.4-15.5-3.8-19.6-3.7c-0.5-1-1.4-1.6-2.5-1.8c-0.3-0.8-0.4-1.6-0.4-2.4c-4.5,3.3,9.4-2.8,8.9-2.3
		c-0.3-0.8-1.3-0.3-1.8-0.8c0.3-0.5,1-0.8,1.1-1.4l0,0c0.6,0.5,1.1,0.4,1.5-0.4c0.5,0.7,1.1,0.1,1.6,0c4.4,2.5-0.7-2.3,6.8-0.6
		c-1.1-1.7-2.5-1.7-4.5-0.2c0,0.4,0.4,0.4,0.5,0.6c-0.8,0.7-1.2,0.5-1.5-0.9c-1.3,0.4-2.6,0.3-3.9-0.3c-0.1-0.5,0-0.9,0.4-1.3
		c1.5,0.3,4.8-1,5.6-0.4c-0.5,0.4-1.2,0.3-1.4,1.1c2,0.7,3-1.2,4.9-0.5c0.3,0,2.9-1.3,3.5-1.6c0.3,0.9,0.9,1.6,1.8,2
		C34,50.5,33,50.2,32.4,51c6.3,1.7,2-1.7,2.1-2.9c2.6-0.2,8,1.1,10.4,1.9c0.7-0.1,1-0.7,1.4-1c1,0.3,1.8,0.1,2.5-0.7
		c0,0.5,0.1,1-0.4,1.4c-0.5,0.1-1.1,0.1-1.8,0.2c0.1,0.5,0.7,0.2,0.8,0.8c-2.4-0.7-5.1,0-7.6-0.7c-0.7,0.4-1,1.1-1.5,1.6
		c0.9,0.4,1.2-0.5,1.9-0.7c2.5,1.6,7.1-0.9,9.2,1.6c-1.5-0.7-2.8-0.3-3.8,1c1.4-0.1,2.6-0.4,3.8-1c0.7,0,6.5-0.7,6.4,0.2
		c-0.3,0.5-0.8,0-1.1,0.6c0.7-0.1,1.2,0.4,1.8,0.2c0.1-0.5,0.3-1,0.4-1.5c1.9-0.4-0.5,2.8,2,1.6l0.1-0.1c0,0,0,0.1-0.1,0.1
		c-0.7-0.8-0.2-1.6,0.1-2.3c-0.4-0.1-5.1-1.6-5.1-1.6c0.3-0.5,0.9-0.4,1.3-0.8c-2-0.3-4.3-0.4-6.3-0.5c0.3-0.4,0.7-0.3,1.2-0.6
		c-0.3-1.3-0.1-2.5,0.6-3.8c-0.7,0.1-1.3,0.2-1.8,0.3c0.2,0.5,0,0.7-0.3,1c0.5,1.1-1.9,2.7-3.7,2.8l0,0c0.1-0.7,0.3-1.4,0.4-2.1
		c-0.1-0.3-0.4-0.3-0.7-0.3l-0.1-0.1l0.1,0.1c-0.7,0.6-1.5,0.7-2.5,0.2l0,0c0-0.2,0.1-0.4,0.1-0.7c-1.1-0.7-1.9,0.2-2.7,0.7
		c0.3,0.7,0.7,1.4,1.4,1.9c-0.2,0.2-3.3-0.1-3.5-0.2l0,0c0.3-0.2,0.7-0.5,1-0.7c-0.7-1-1.4-1-2.2,0c-1.1-0.4-2.1-0.4-3.1,0
		c0.1-0.6,0.8-0.7,0.7-1.3c-0.3-0.6-0.9-0.9-1.7-0.9c0.1-0.5,1-0.3,1-1c-0.6-0.1-1.2-0.3-1.6,0.3c0,0.4,0.3,0.6,0.6,0.7
		c-0.9,0.5-1.8,0.4-2.7-0.5c1-0.6,2.1-0.5,2.2-1.7c-0.1-0.2-0.5,0.1-0.7-0.1c-0.2-0.3,0-0.6,0-1c0.6-0.4,8-2.6,2.1-0.7
		c0.5,0.5-1.7-2.4-1.4-1.8l0,0c0.9-0.4,1.7-0.7,2.6-1.1c0.3,1.2,1.1,1.2,2.2,0.1c-0.7,0-1.5,0-2.3-0.1c0.2-0.8,1.1-0.4,1.4-0.8
		c0.2-1-2.7-1.9-3-0.6l0,0c-0.3-0.2-0.5-0.3-0.8-0.5l0,0c0.7-1.4,2.1-1.9,3.3-2.9c-1.3,0.6-2.5,0.4-3.5-0.5l0,0c0-0.6,0-1.2-0.8-1.3
		l0,0c-1.5-2.6-3.4-1-4.4-2.4c0.7-0.1,1-1,1.7-1.1c0.1,0.3,0.2,0.3,0.4,0.2c-0.1-0.2-0.3-0.2-0.5-0.2c0.6-0.4,0.5-1.4,1.3-1.6
		c0.6,0.3-0.2,0.9,0.5,1c2.1-3.3,6.6-0.3,8.9-2c-1.8-1.5-4-1.6-6.5-0.4c-1.7-0.1-3.3,0.2-4.8,1c-0.5,1-0.8,2-1.1,3
		c-0.7-0.2-1.3-0.6-2.1-0.3c-0.4-0.6,0.7-0.7,0.2-1.4c-0.9-0.1-1.7,0.6-2.6,0.5l0,0c0.1-0.4,0.6-0.7,0.5-1.2l0,0
		c-0.2-0.1,5.1-5.4,2.8-1.6c2.8-0.7,2.9-0.7,5-0.1c0.6-0.2,1.1-0.5,1.5-1c1.5,0.2,3.7,0.4,5-0.3c-1,0-1.2-0.7-1.6-1.1l0,0
		c-0.4-0.5-1.1-0.4-1.7-0.5c0,0-0.1-0.1-0.1-0.1c0,0,0.1,0.1,0.1,0.1c0.1,0.4,0.5,0.7,0,1.2c-0.9-0.3-1.5,0-1.7,0.8
		c-0.3-0.1-0.6-0.2-0.9-0.6c0.5-0.7,0.8-1.6,0.5-2.5c-0.5-0.2-1.9,1-1.4-0.4l0,0c0.7-0.4,0.7-0.7,0.1-0.9l0,0
		c-0.1-0.7,0.3-1.3,0.7-1.8c-0.5-0.3-0.8-0.1-1.1-0.1c-0.5,0.3-0.2,1.1-0.8,1.3l0,0c-0.1-0.6-0.3-1.3-0.4-1.9
		c1.3-0.6,1.3-0.6,2.8-0.3c0.3-0.7-0.5-0.9-0.5-1.4l0,0c2.1-0.5,7.7,0.5,9.2-1c-0.8-1.2-0.8-1.2-2.5-1.3c0.2-1.1,1.2-1.3,3.2-0.5
		c1.2,0.8,2.4,0.9,3.6,0.3c-0.9-0.5-0.9-0.5-2-1.8c1.1,0.3,2.1,0.7,3.2,1.2c1.5-0.2,1.1-1.6,3.2-1.5c-0.1,0.3-0.1,0.5-0.1,0.7
		c-0.6,0-0.6,0.4,0,0c0.4,0,0.8,0,1-0.5c-0.1-0.5-0.5-0.9-0.9-1.2c-2.3-0.9-1.1-1.3-2.2,0.2c-0.6-0.4-0.7-0.9-0.5-1.6
		c0.9-0.7,1.9-0.6,2.7,0.2c0.5-0.7,0.4-1.3,0.3-1.9c-1.4-0.6-2.8-0.5-4.1,0.1c-0.1-0.9-0.2-1.7-0.2-2.6c0.1-0.5,0.5-0.8,0.9-1.1
		c0.6,0.4,1.1,2.9,1.2,0.7c0.3-0.4,0.8-0.1,1.1-0.4l0,0C47.9,3.9,48.1,4,48.5,4c1.3,0.6,1.3,0.6,2,0.2c-0.6,0-1.3-0.1-2.1-0.1
		c0.3-0.3,0.6-0.6,0.9-0.9c1.1,0.3,2.2,0.4,3.3,0.2c0.7,0.4,0.1,1.3,0.8,1.8c1.8,0.6,3.5-1.7,5-1.6c3.7-1.9,7.4-3.5,11.8-3l0,0
		c0,0.6,0.1,1.2,0.1,1.8c0.4,0.2,0.8,0.4,1.1,0.6c0.2,0.6-0.3,1.4-1.3,2.7c0.3,0.4,0.8,0.2,1.1,0.4c-0.1,1-0.1,1-0.9,1.8
		c0.2,0.3,0.5,0.6,0.7,0.8c-0.9,0.2-1.9,0-2.4,1.1c0.7,0.4,1.9-0.8,2.3,0.6c-0.7,1.2-2.4,0.5-3.1,1.8c0.2,0.4,0.4,0.9,0.7,1.4
		c0.3-1.1,1.1-1.4,2.2-0.9l0,0c-0.9,0.3-1.3,1-1.7,1.6c-0.7,0.3-1.2-0.3-1.9-0.1c-0.3,0.2-4.1,1.6-4.4,2.7c0.8,1,0.8,1,2.9,1
		c-1.2,1-2.6,0.1-3.7,0.6c1.7,1,1.6,1.9-0.3,2.6c1.7,0.8,3.5,0.7,4.9,1.5c0.7-0.2,1.3-0.4,1.5-1.1l0,0c0.6,0,1-0.3,1.3-0.8
		c1.7-0.8,3.5-0.9,5.2-0.3c-1,1.1-2.4,0-3.3,0.8c0.1,0.4,2.8,1.3,3.1,1.4c-1.6,0.9-3.1,0.2-4.6,0.3c0-0.5,0.5-0.4,0.6-0.7
		c0.3,0.9-9,0.5-9.5,1.6c0.8,0.1,1.6-0.6,2.2,0.3c-3,3.9-4.2-2.1-2.3,1.4l0,0c0.1,1.4,1.1,1.6,2.9,0.6l0,0c1,0.2,1.7-0.2,2.2-1.1
		l0,0c0.6-0.1,1.2-0.6,1.7,0.1c-2.1-0.1-0.2,2,0,0c0.6,0.6,0.6,0.6,0.2,1.5c0.3,0.5,1.5-0.5,1.9-0.5c1,1.6,2.3,2.3,3.8,2
		c0.5,0.3,1.7,1.7,2.7,2.3c0.6,0.1,1.1-0.5,1.8-0.4l0,0c-0.4,0.8-1.2,1.3-2.2,1.5c-1.6-0.3-3.2-0.5-4.8-0.8l0,0c0.9,0,1.7,0.3,2.6,0
		c-1.1-1.2-1.4-1.3-2.9-1.7l0,0c0-2-4.2-3.4-3.7-0.3l0,0c-0.4,0-0.8,0-1.2,0.1c0.2,0.8,0,1.5-0.4,2.1c-1,0.7-1.9,0-2.7,0.1
		c0.7-0.7-4.1,4.6-3.1,2.6c-1.1-0.3-2.3-2.3-4.5-1.1c-0.1,0-0.3,0.1-0.5,0.1c0.2,0.1,0.3,0.1,0.5-0.1c1.3,0.5,4.7,1.2,5.7,1.8
		c-1.2,1-5.2,1.7-5.6,3.2c-0.4,0.1-0.9,0.1-1,0.6c0.5,1.3,2.4,2.4,1,0.2c0-0.3,0-0.5-0.1-0.8c1.2-0.1,1.9,0.9,2.9,1.1
		c-0.1,0.4-0.5,0.4-0.3,0.9c0.4-0.1,4.6-1.6,5.4-1.6c0.6,0.3,0.4,0.8,0.4,1.3c1.1,0.1,2.3,0.2,3.4,0.3l0,0c-0.9,0.5-1.9,0.9-2.8,1.4
		c0-0.1,5.9,0.7,5.4,0.3c-0.9,0.1-6,0.6-6.5,0.5l0,0c0.1-0.2,0.1-0.4,0.2-0.7c-1.6,0.7-2.9,0.4-4-0.8c-0.6,0.2-0.8,0.7-1.1,1.1l0,0
		c-0.5-0.2-0.1-0.7-0.4-1.1c-0.7-0.3-1.4-0.2-2.1,0.1c-0.1,0-0.1-0.3-0.4-0.1c0,0,0.3,0.1,0.4,0.1c0.2,0.4,0.6,0.4,1.1,0.3
		c-0.8,1.5-4.8-1.6-4.6,1.2c3.3,0.5,3.2-1.1,0.5,1.3c0.7,0.3,3.1,0.9,4.1,0.9c-0.4,0.8-11,5.1-0.3,4.1c-0.7-0.8-1.7-1.1-2.9-1.1
		c0.7-1.5,5.9-0.3,4.9-3.3c0.8-0.3,4.5,1.9,5.8,0.1c-0.2-0.6-1.1-0.4-1.2-1c3.6-0.6,3.6-0.6,4.8,0.2c-2.6,0.1-2.6,0.1-2.9,1.2
		c1.1-0.5,1.9-0.1,2.5,1.3c1.2-0.5,2.5-0.5,3.6,0.1c-0.4,0.8-1.3,0.1-1.9,0.6c0,0.3,0.1,0.6,0.1,1L69,47.4c0.8-0.7,1.9-0.9,3.2-0.5
		c0.2,0.2,0.4,0.5,0.6,0.7c0.3,1.6-9.7,3.9-7.1,3.9c0.6-0.9,1.5-0.7,2.1-1.2c-0.3-0.6-0.5-1.2-0.7-1.8c-1.1-0.1-2.1,0.1-3.1,0.6
		c0.3,1,0.9,1.3,2,0.9c-1.4,1-2.9,1.5-4.5,1.7l0,0c-0.8,0.6-1,1.4-0.7,2.3c0.4,0.2,0.6-0.3,1-0.4c2,0.4,4.1,0.7,6.2,1.1
		c-1.4,2-3.6,2.2-6.6,0.7c-1.4-1.4-3.1-1.5-5.1-0.4C55.7,54.4,51,54,50.5,54c-0.3,0.8-0.9,1.2-1.8,1.3c-0.2-0.3,3.1-0.3,7.4-0.2
		c1.1,1.2,2.3,1.3,3.5,0.4c0.5,0.3,0.3,1.1,0.9,1.2l0,0c2.2,0.4,4.4,0.5,6.7,0.1l0,0c1.1,0.3,2.1,0.1,2.9-0.6l0,0
		c-0.1,0.2-0.3,0.5-0.4,0.6c0.1,0.8,1.3,0.6,1.3,1.5c0.2-0.4-8-0.2-7.4-0.2c1,0.5,1.7,0.3,2.1,0.9c-0.7,0.8-5.8,2.1-6,2
		c1.5,0.1,2.3-0.6,2.7-2c-1.9,0.2-1.9-1-2.9-0.2c0.2,0.6,1,0.6,1.3,1c-0.2,1.1-1.1,1.5-2.7,1.2c0.1-0.6,0.1-1.1,0-1.7
		c-0.5,0.1-1,0.4-1.5,0c0.1-0.4-0.1-0.7-0.4-0.7c-0.1,0.3,0.1,0.6,0.5,0.7c-0.4,0.9-1.1,1.1-2.3,0.6c0,0.3,0,0.5-0.1,0.9
		c-1.1,0.6-2.3,1-3.6,1.3c0.1,0.2,0.2,0.4,0.3,0.6l0,0c-0.5,0.1-0.9,0.2-1.4,0.2c-0.7-0.6-1.1-1.4-1.2-2.3c-0.4,0.1-3.3,3-2.2,3.5
		c1.6-0.1,10.5-0.7,12.2,0.9c-0.1,0.6-0.9-0.1-0.9,0.6c0.2,0.3,0.5,0.4,0.9,0.5l0,0c1.1,0.6,2.1,0.3,3-0.8c-0.1-0.8-0.9-0.5-1.3-0.9
		c1.5,0.4,2.7,0.2,3.5-0.8c-0.2-0.1-4.9,1.4-6,0.8c0-0.2,0.1-0.4,0.1-0.6c-0.4-0.3-1.1,0.3-1.5-0.4c0.8-0.7,1.6-1.3,2.1-2.2
		c0,0.6,0.2,1.2,0.7,1.6c0.8,0.2,1.4-0.4,2.1-0.7c4.4,1.2,12,2.9,16,0.3c0.3,0.3,0.3,0.7,0.2,1.1c1.9,0.6,2,0.5,2.6-0.4
		c-0.5-0.7-1.5-0.1-1.9-1c0.2-0.9,2,1.1,2.6-0.8c0.5-0.1,1.1,0.2,1.5-0.3c0-0.7-1-0.5-1-1.3c0.3-0.4,0.6-0.9,0.9-1.4l0,0
		c0.7,0.9,1.5,1.6,2.5,2c-0.3,0.5-3.4,1.3-0.2,1.5c-0.5,1.3,1.4,1-0.1,0c0.5-0.6,1.1-0.3,1.6-0.2c0.8,1.1-1.1,2.9-1.7,3.3
		c-0.1,0.4,0.5,0.4,0.3,0.9c-2.2,2.3-1.3-0.3-2.8,2.8c-0.6,0.1-1.4,0.3-2,0.4c-2.3-1.3-1.8,2.1-4.5,0.7c-0.2,0.6-0.3,1.3-0.3,1.9
		l0,0c-0.7,0.4-1.3,0.1-2-0.3c-4.6,6.2-16.5-1.2-22.7,2.2c1.8,1,3.5,1.9,5.5,1.8l0,0c-0.9,1.2-1.2,2.5-0.9,3.9
		c-0.3,0.6-0.8,0.5-1.1,0.8c-0.3-0.9,1.3,3.2,1.1,2.9c2.3-0.3,4.7-0.9,6.9-1.7c0.2,0.5-0.4,0.6-0.2,1.1c1.3,0.1,5.3-3.1,6.7-2l0,0
		c0.4,0.5,1.1,0.4,1.7,0.7C69.5,81,69.1,81.3,68.8,81.6L68.8,81.6z M68.1,85.7c0.1,0,0.1-0.1-0.1,0.1C68.1,85.8,68.1,85.8,68.1,85.7
		z M82.6,62.3C82.1,61.8,82,62.2,82.6,62.3l0.1,0.1L82.6,62.3z M43,59.6C43.7,59.6,43.3,59.2,43,59.6C42.3,59.6,42.6,60,43,59.6z
		 M43.7,37.2c-0.1-0.2-0.2-0.3-0.4-0.2C43.5,37.1,43.6,37.2,43.7,37.2l0.1,0.1L43.7,37.2z M82.9,64.4c0-0.4-0.1-0.8-0.5-0.5
		C82.4,64.1,82.6,64.3,82.9,64.4l0.1,0.1L82.9,64.4z M60.9,28.9c0.2,0.3,0.4,0.5,0.8,0.3C61.5,28.8,61.1,28.9,60.9,28.9
		c0-0.1,0.1-0.3-0.2-0.4C60.6,28.6,60.6,28.8,60.9,28.9z M42.1,35.5c-0.2-0.2-0.3-0.6-0.7-0.3C41.6,35.5,41.9,35.3,42.1,35.5
		l0.1,0.1L42.1,35.5z M38.1,16.9c-0.4-0.5-0.8-0.5-1.2-0.1c-1.3-0.6-2.3-0.5-2.9,0.4c1,0.1,2,0.7,2.9-0.5
		C37.2,16.9,37.7,16.9,38.1,16.9c0,0.1,0.1,0.3,0.1,0.5C38.3,17.2,38.1,17.1,38.1,16.9z M73.8,69.6c-0.3-0.4-0.7-0.4-1.1-0.2
		C73,69.5,73.4,69.5,73.8,69.6C74,69.7,74,69.7,73.8,69.6z M41.5,57c0,0,0.1-0.1,0.1-0.1C41.6,56.9,41.6,56.9,41.5,57
		c-0.4,0.1-0.9,0.2-0.6,0.9C41.1,57.5,41.3,57.2,41.5,57z M45.5,66.4l-0.1,0.1C45.3,66.5,45.4,66.4,45.5,66.4
		c1.1,0.5,1.7,0.3,1.8-0.6C46.6,66,46,65.8,45.5,66.4z M40.7,93.4l0.1-0.1L40.7,93.4c-0.5,0-1.1-0.1-1.3,0.6
		c0.4,0.3,0.9,0.5,1.4,0.4C41,93.9,40.7,93.7,40.7,93.4z M59.4,31.7c1.3-0.2,2-0.8,1.9-1.7c-1,0.1-2.1-0.1-2.5,1.3
		C59,31.4,59.2,31.5,59.4,31.7l0.1,0.1L59.4,31.7z M56.2,29.4c0.7-0.1,1.2,0.7,1.9,0.7c0.2-0.3,0.3-0.6,0.2-0.8
		C57.2,29,57.2,29.1,56.2,29.4c-1.2-0.6-2.3-0.5-3.3,0.2c-0.6,0.1-1.3-0.1-1.9,0.5c0.9,0.2,1.4-0.2,1.9-0.6
		C54.1,30.3,55.2,30.2,56.2,29.4z M37.7,27.7c0.3-0.6,1.2-0.3,1.5-0.9C38,26.6,37,26.6,36,27C36.5,27.8,37.2,27.4,37.7,27.7
		L37.7,27.7z M64.1,29.1l0.1-0.1c-0.3,0.2-1.6,1.1-1.5,1.4c0.9,0.6,1.6,0.5,2.1-0.5C64.6,29.7,64.4,29.4,64.1,29.1z M44.9,14.1
		c-1.2,0.1-1.5,0.9-1.7,1.9C44.6,16.1,45.8,15.2,44.9,14.1c1.3-0.4,3,0,4.1-1.4C48,12.4,45.1,12.5,44.9,14.1z M52.2,71.4L52.2,71.4
		c0.5,0.1,1.1,0.1,1.4-0.5c-0.2-0.5-0.5-0.9-1.1-1.1c-1.3,0.5-2.6,1.1-3.9,1.6c0.2,0.5,0.6,0.8,1,1c0.2-0.2,0.3-0.4,0.6-0.6
		C51.1,72.4,51.8,72.3,52.2,71.4z M35.8,45c-0.3,0-0.6-0.2-0.9,0.1C35.2,45.4,35.5,45.2,35.8,45c0.8-0.3,3.3-0.4,3.3-1.3
		c-0.5-0.1-1.1-0.2-1.5-0.3c-0.4-0.5-0.1-1.2-0.9-1.6c-1.1-0.1-2.4-0.1-3.9,0.2c1.1,0.7,2.3,0.1,3.1,0.7c0.1,0.7-0.7,0.9-0.7,1.7
		C35.4,44.6,35.6,44.8,35.8,45z M53.9,9.7c-0.1,0.1-3.3,3.3-2.8,3.6c10.7-0.3,3.8,0.6,5.6-1.8c2-0.7,7.2-0.5,9.3-0.8
		c0.3,0.4,0.2,0.8,0.2,1.1c0,0-0.1,0.1-0.1,0.1c0-0.1,0.1-0.1,0.1-0.1c1.1-0.6,0.4-1.3,0.3-2c-1.7-0.6-2.1,0.6-3.5,0.5l0,0
		c0.1-0.7-0.5-1.1-0.5-1.7c1.9-0.4,7,1.1,6.7-0.9c-4.4-1.7-2.3,0.9,0-1.8c-0.4-0.2-0.8-0.4-1.1-0.5c-0.3-0.4,0.2-0.9-0.2-1.2
		c-0.5,0-0.9-0.1-1.4-0.1c-0.3,0.4-0.1,1-0.6,1.4c-1,0.1-1.8,0.6-2.5,1.4c-1.4-0.3-2.7,0-3.8,0.9c-0.3-0.2-0.3-0.6-0.1-1
		c0,0,0.1-0.1,0.1-0.1s0,0.1-0.1,0.1c-0.9-0.5-1.8-0.4-2.6,0.2c-0.4-0.3-0.7-0.5-1.2-0.8c-0.6,0.4-1.5,0-2.2,0.3
		c0,0.6,0.6,0.3,0.7,0.6c-0.1,0.4-0.7,0.6-0.7,1.1c0.4,0.4,1.3,0.4,1.5,1.2C54.7,10,54.3,9.8,53.9,9.7c-0.5-0.7-0.5-0.7-1-0.1
		C53.3,9.7,53.6,9.7,53.9,9.7z M49.2,87.5c-0.5-1.9-1.7-2.9-3.7-3c0.1-0.3,0.2-0.5,0.3-0.7c-0.3-0.3-2.8-1.8-3.2-1.6
		c-0.2,1.5,1.8,2.2,1.6,3.4c-0.4,0.3-1-0.1-1.3,0.3c-0.1,0.6,1.6,2.1,2.1,2.1c0.2-0.3-0.1-0.7,0.4-0.9
		C46.5,87.8,47.9,87.9,49.2,87.5z M67.9,84.3c-1.7-0.5-8.5-1.8-9.5-0.7c-4.1-1.6,2.4,1.9,1.3,0.9c-0.1,0.4-0.4,0.7-0.7,0.9
		c1.6,0.3,1.6,0.3,2.5-1.1c0.9,0.2,0.2,1,0.5,1.4C62.9,86,67.6,85,67.9,84.3z M49.4,37.2c-1.5-1-2.6-0.9-3.5,0.2
		c3.7,7.6,8.3-1.9,4.1-0.9C49.9,36.7,49.7,36.9,49.4,37.2z M41.2,26.5c-0.3-0.3,0.4-0.6-0.1-0.9c-0.3,0-0.7,0.1-0.9,0.5
		c0.3,0.5,0.4,1.2,0.5,1.8c1.4,0.5,2.7,0.3,3.7-0.6C43.2,26.9,42.4,25.9,41.2,26.5z M32.4,21.5 M55.8,69.2 M49.7,61.5
		c0.7-0.2,2.3,0,2.3-1.2C50.3,59.6,49.5,60,49.7,61.5z M63.7,14.4c1-0.1,1.8-0.6,2.5-1.3c-0.8,0.1-1-0.7-1.8-1.1
		C64.6,13,63.8,13.5,63.7,14.4z M47.4,35.8c-0.6-0.7-1-1.5-2-1.5C44.8,35.1,46.3,36.9,47.4,35.8z M36.1,57.5
		c2.1,0.4,2.1,0.4,3.2-0.4C38.1,56.8,37.1,57.1,36.1,57.5z M51.3,33c1.2,1.3,2.5,1.4,4.1,0.7C54,33.9,52.6,33.7,51.3,33z M34,18.2
		C34,19,36,20.6,36.3,19.6C35.9,18.7,35.1,18.3,34,18.2z M51.4,8.1c2.6-0.3,0.3-1.7-0.7-1.2C50.8,7.4,51.1,7.7,51.4,8.1z M36.9,33.7
		 M42.8,95.3c-1.6-1.1-0.1,2,1.2,0.7c-0.1-0.5-0.4-0.9-0.7-1.3C43,95,42.9,95.2,42.8,95.3z M43.1,14.7 M43,34 M71.3,86.1
		c1.5,0.5,2.4,0.1,3.8-0.2C73.8,85.8,72.4,85.8,71.3,86.1z M56.1,17.7c1.3,0.4,1.5-0.5,2.1-1.2C56.8,16.6,56.8,16.6,56.1,17.7z
		 M51.4,14.9c1.1,0.1,2,0.1,2.8,0.2C53.4,14.8,52.6,13.7,51.4,14.9z M12.1,58c0.8,0.7,1.3,1.3,2.3,1C13.9,58,13.2,58,12.1,58z
		 M67.5,80.6c-1.5-0.4-1.6-0.3-2,0.7C66.3,81.4,66.9,81.4,67.5,80.6z M41.8,88.2c0.3,1.3,0.9,1.2,1.9-0.2
		C43,88.1,42.4,88.2,41.8,88.2z M57.3,70.4c-1.7-0.1-2.2-0.1-2.9,0.5C55.4,71.1,56.2,71.1,57.3,70.4z M42.1,57.6 M62.6,12.2
		 M64.2,46.2c-1,0.2-1.5,0.6-1.4,1.3c0.4,0,0.7,0.3,1.1,0C64.2,47.1,64.4,46.7,64.2,46.2z M24.8,26.8c1.3,0.1,1.9-0.3,1.8-1.4
		C26,25.6,25.4,25.7,24.8,26.8z M55.9,31.3 M53.2,31.5 M63.7,27.5 M48.7,59.3c1,0.3,1.6,0.1,1.6-0.6C49.6,58.3,49.1,58.6,48.7,59.3z
		 M51.1,66.3c-0.2-0.5-1.4,0.8-0.6,0.9C50.6,66.9,51.1,66.8,51.1,66.3z M65.6,64.5 M57.4,72c-0.7-0.4-1.4-0.3-2.1,0
		C55.9,72.1,56.6,72.1,57.4,72z M48.1,35.3 M31.7,29.6c1.2,0.5,1.2,0.5,1.8-0.4C32.8,29.1,32.3,29.3,31.7,29.6z M40.6,33.1
		 M43.1,91.2c-0.7-0.1-1.1,0-1.5,0.4C42.2,91.9,42.6,91.8,43.1,91.2z M78.4,65.2 M56.2,15.1 M46.9,95 M53.5,53.9
		c-0.1-0.6-0.5-0.9-1.1-0.8C52.5,53.7,52.7,54,53.5,53.9z M70.6,66.2 M44.2,39.8 M34.6,76.9 M49.4,39.7c0.9-0.2,1.5-0.3,2-0.9
		C50.5,38.6,50.1,39,49.4,39.7z M32.1,49.1 M37,35.9 M39.3,20.6c0.7,0.1,0.7,0.1,1.1-0.5C39.9,19.9,39.5,20.1,39.3,20.6z M42.4,60.8
		c0.7,0.3,1.1,0.4,1.4,0.2C43.5,60.7,43.5,60.7,42.4,60.8z M53,39.1c-0.5,0.5-0.5,0.5-0.7,1C52.7,40,53.1,39.9,53,39.1z M52.7,37.1
		 M55.2,27.9c-1.1-0.2-1.1-0.2-1.4,0.2C54.2,28,54.6,28,55.2,27.9z M69.4,64.3 M47.1,72.1 M36.4,21.9 M54.1,65.9 M46.7,59.2
		c-0.4-0.2-0.7-0.3-1.1-0.1C45.9,59.4,46.3,59.2,46.7,59.2z M32.8,17.6c-0.4-0.1-0.8,0-1.1,0.5C32.1,18.1,32.5,18.2,32.8,17.6z
		 M32.2,18.9 M39.9,29.7c0.5,0,0.9-0.1,1.1-0.4C40.6,29,40.3,29.2,39.9,29.7z M51.1,64.8 M62,40.5c0.3,0,0.5-1-0.3-0.1
		C61.8,40.4,61.9,40.4,62,40.5z M59.2,93.1 M47.9,14.8 M40.5,82.8 M36,35.7 M35,75.8 M44.4,32.1 M43.1,54.7c0.4,0.2,0.6-0.1,0.2-0.3
		C43.3,54.4,43.1,54.6,43.1,54.7z M47.2,32.6 M50.2,32.9c-0.3-0.3-0.6-0.2-0.9,0C49.6,33.1,49.9,33.1,50.2,32.9z M50.4,35.9
		c0.5,0.2,0.5,0.2,0.8-0.1C51,35.7,50.7,35.6,50.4,35.9z M53.1,67.4 M57.4,35.2 M60.4,31.3 M62.3,15.1 M62.9,57.8l-0.3,0.1
		C63.8,58.8,62.8,57.7,62.9,57.8z M63.3,64.5 M70,47.9 M34.2,84.1L34,84.2c0.1,0.3,0.2,0.3,0.4,0.2C34.3,84.3,34.3,84.2,34.2,84.1z
		 M38.6,42.1 M39.8,24.9c-0.4-0.2-0.5-0.1-0.2,0.2C39.7,25,39.8,24.9,39.8,24.9z M44.2,30.5 M44.7,41.7 M46.3,14.5
		c0,0.1,0,0.1,0,0.1c0.3,0.1,0.4,0.1,0.3-0.1C46.5,14.5,46.4,14.5,46.3,14.5z M46.1,61.1c-0.1,0-0.5,0.4,0.1,0.1
		C46.2,61.2,46.1,61.1,46.1,61.1z M45.3,94.9 M48,63.8 M54.7,35.3 M53.2,81.6 M57.9,25.3 M59,46.3c-0.3,0.2,0.1,0.2,0.3,0.1L59,46.3
		z M60.5,19.6 M70.4,4c0-0.1-0.1-0.1-0.1-0.1c-0.2,0.1-0.2,0.3-0.1,0.4L70.4,4z M84,63.3l-0.3,0.1C83.9,63.7,84.3,63.4,84,63.3z
		 M16.3,55.3 M20.9,53.5c0,0-0.2,0.1-0.3,0.1C21.1,54.1,20.9,53.6,20.9,53.5z M35,28c0,0-0.2,0.1-0.3,0.2c0.2,0.2,0.4,0.2,0.6,0
		C35.2,28.1,35.1,28,35,28z M15.4,56.7c0.1,0.1,0.2,0.1,0.2-0.1C15.5,56.5,15.4,56.5,15.4,56.7z M34.5,35.1l0.1-0.1l-0.1,0
		L34.5,35.1z M32,81.4 M35.7,34c-0.1-0.1-0.2-0.1-0.2,0.1L35.7,34z M37.1,18.7c-0.1,0-0.1,0-0.1,0c0,0.2,0.1,0.2,0.2,0.1
		C37.2,18.8,37.2,18.7,37.1,18.7z M38.8,37.9l-0.1-0.1l0,0.1L38.8,37.9z M36.2,77.3l-0.1,0l0,0.2L36.2,77.3z M39.4,40.9 M41.2,54.2
		l0.1,0.1l0-0.1L41.2,54.2z M44.8,28.7l-0.2,0.1l0.1,0.1L44.8,28.7z M45.1,57.5 M45.7,55.9l0.1-0.1l-0.1-0.1V55.9z M44,93.1l0.1-0.1
		L44,93V93.1z M45.6,95.9L45.4,96C45.5,96.1,45.6,96.1,45.6,95.9z M45.8,89.8c0.1,0.1,0.2,0.1,0.2-0.1L45.8,89.8z M50.2,40.7
		c0,0-0.1,0-0.2,0c0,0,0.1,0.2,0.2,0.1C50.2,40.8,50.2,40.8,50.2,40.7z M49.6,65.1l-0.1,0.1c0.1,0.1,0.2,0.1,0.3,0
		C49.8,65.2,49.7,65.2,49.6,65.1z M57.4,20.6 M56.5,49.4c0,0-0.1,0.1-0.1,0.1C56.5,49.7,56.8,49.5,56.5,49.4z M56.8,85.6
		c0.1,0.1,0.2,0.1,0.2,0L56.8,85.6z M68.9,3l-0.2,0.1l0.2,0.1V3z M77.5,84.5c0,0-0.2-0.1-0.2,0.1C77.4,84.7,77.4,84.7,77.5,84.5z"/>
	<path d="M84.2,14.3c-1,0-7.1-0.7-7.8-1.1c-0.2-0.6,6.5-2.3,7.6-3.8c2.1-0.4,4.1,0.1,5.7,1.7C89.3,12.9,84.8,12.1,84.2,14.3
		L84.2,14.3z"/>
	<path d="M89.1,58.2c-1.2,0.3-2.2,2.1-3.3,2.4c-1.4-2.2-1.4-2.2-3.8-2.5l0,0c1.2-0.9,2.5-1.6,4-2.1c0.5-0.1,0.7,0.3,1,0.6
		c1.3,0,2.6-0.2,3.8-0.8l0,0c-0.3,1.3,0.6,2.4-1.3,3C89.3,58.7,89.2,58.5,89.1,58.2C89.5,57.5,88.8,57.2,89.1,58.2z M85.9,57.3
		c0.4,0.9,1.2,0.9,2,0.8C87.6,57.2,86.9,56.9,85.9,57.3z"/>
	<path d="M20.7,81.6c0,0.3,0.1,0.7,0.1,0.9c0.5,0.3,0.7-0.4,1.2-0.2c0.4,0.4,0,0.7-0.2,1.1l0,0c-2,1.7-2-0.6-3.9-0.9
		C16.9,78.5,18.2,76.7,20.7,81.6L20.7,81.6z"/>
	<path d="M66.2,35.1c-0.6,1.4-0.4,2.2,0.7,2.5l0-0.1c-0.7,0.6-1.5,0.7-2.5,0.1c0-0.6,0.7-0.5,0.6-1.1c-1.8,1.1-3.2,0.8-4.1-0.9
		C61.3,35.1,65.5,35,66.2,35.1L66.2,35.1z"/>
	<path d="M70.7,60.2c0.5,1.1,1.4,1.5,2.6,1.2c-0.1,0.7-6.5,0.2-7.5-0.3c0.8-0.4,1.6-0.6,2.1-1C68.8,61.1,69.8,61.1,70.7,60.2
		L70.7,60.2z"/>
	<path d="M23.4,23.5c-1.1,0.6-1.8-0.6-2.8,0c-0.1,0.1-0.1,0.4-0.2,0.6c-0.5,0-1.1,0.2-1.6-0.3c0.9-1.6,2.6-1.5,4.1-2
		C23,22.4,23.2,22.9,23.4,23.5z"/>
	<path d="M71.3,33.3c-0.2,0.6,0.1,1.3-0.6,1.7c-0.7-0.3-0.3-0.9-0.4-1.5c-1,0.3-1.9-0.6-2.9-0.3c0-0.4,0-0.8-0.1-1.2
		c1,0.1,2,0.1,3,0.3C70.9,32.5,71,33.1,71.3,33.3L71.3,33.3z"/>
	<path d="M77.5,28.8c0-0.9-0.8-0.6-1.2-0.8c0-1.1,2.9,0.3,3.5-0.1c0.2-0.6-0.5-0.5-0.6-0.9c0.4-1.3,2.6,0,2.9,0.5
		C80.5,28,79,28.4,77.5,28.8L77.5,28.8z"/>
	<path d="M43.9,69.1c-0.9,1.1-7.2,0.5-6.9-0.6C37.3,68.3,44.1,69.2,43.9,69.1z"/>
	<path d="M77.3,79.3c1.4-0.1,2.8-0.3,4.1-0.5c0.4,0.6-0.2,1.1-0.1,1.6l0,0c-1.4-0.3-2.8-0.2-4.2,0.1l0,0
		C77.5,80.2,77.6,79.8,77.3,79.3L77.3,79.3z"/>
	<path d="M68.8,81.7c2.1-0.1,4.2-0.1,6.3,0.1c-1.2,0.9-3.9,0.3-5.4,0.7C69.2,82.4,69,82,68.8,81.7L68.8,81.7z"/>
	<path d="M34.4,94.2c0.1-0.2,0.1-0.4,0.2-0.7c-1-0.1-2.2,0.5-3.1-0.6c1.5,0.3,2.9,0,4.2-0.7l0,0C35.6,93,35.1,93.7,34.4,94.2
		L34.4,94.2z"/>
	<path d="M35,12.9c-0.3,0.6,0.2,1.1-0.4,1.5c-0.4,0.1-0.7-0.3-1.1-1.9c1-0.2,2-0.3,3.1-0.3C36.5,12.2,35.4,12.8,35,12.9z"/>
	<path d="M88.6,24.2c1.1-0.4,1.6-1,1.5-2c0.5,0.1,1,0.1,1.5,0.2l0,0c-0.2,1.6-1.3,2.2-2.6,2.6C88.6,24.7,88.5,24.5,88.6,24.2
		L88.6,24.2z"/>
	<path d="M66,33.9c-1,0.4-1.8,0.1-2.4,0.1c-0.5,0.2-0.2,0.5-0.4,0.7C59.4,34.7,64.3,33.7,66,33.9z"/>
	<path d="M78.9,77.7c-1.5,0.2-3,0-4.5-0.3C74.7,75.7,76.2,75.7,78.9,77.7z"/>
	<path d="M86.5,23.6c-0.5,0.7-5.1,1.1-5.5,0.7C81.9,22.6,83.8,22.4,86.5,23.6L86.5,23.6z"/>
	<path d="M75.6,51.6c-1.3,0.2-2.6,0.2-3.8-0.1C72.9,50.3,74.2,50.3,75.6,51.6z"/>
	<path d="M29.2,68c-0.3-0.6,0-1-0.3-1.3C34.9,62.7,29.7,67.4,29.2,68z"/>
	<path d="M26.2,22.9"/>
	<path d="M38.6,8.2c0.9,1.3,0.4,2.9-1.1,2.3C37.6,9.6,38,9,38.6,8.2z"/>
	<path d="M68.6,43.1c0.9-1,1.9-1.1,2.9-1.2C70.8,42.6,70.2,43.7,68.6,43.1z"/>
	<path d="M53.9,3.6c0.1-0.8-0.1-1.7,0.6-2.3c0.8,0.1,0.2,1.3,1.1,1.3C55.1,3,54.7,3.6,53.9,3.6L53.9,3.6z"/>
	<path d="M65.5,60.2c-0.5,1.1-1.3,1.4-2.7,1.3C63.5,60.1,64.4,59.7,65.5,60.2z"/>
	<path d="M11.2,17.9"/>
	<path d="M35.9,64.8"/>
	<path d="M70.7,60.3c-0.3-0.6-1.1-0.1-1.4-0.7c1.5-0.3,2.9,0,4.2,0.8l0,0C72.6,60.6,71.7,60.5,70.7,60.3L70.7,60.3z"/>
	<path d="M79.4,57.3c0.7-0.3,1.3-0.2,2.1-0.3C80.7,58.4,80,58.5,79.4,57.3z"/>
	<path d="M21.9,83.4c1.3,0.5,1.3,0.5,2.7,0.5C24.8,84.5,22.1,84.5,21.9,83.4L21.9,83.4z"/>
	<path d="M81.3,80.5c0.8-0.1,1.5-0.7,2.3-0.3c-1.4,0.9-1.4,0.9-1.6,2.2C81.7,81.8,81.5,81.1,81.3,80.5L81.3,80.5z"/>
	<path d="M74.9,71.3c1,0.3,1.9,0.7,2.7,1.3c-0.8-0.1-1.6-0.1-2.5-0.2C75.1,72.1,75,71.7,74.9,71.3L74.9,71.3z"/>
	<path d="M29.7,30.8"/>
	<path d="M31.8,36c-0.6,0.6-1.5,0.6-2.2,1.1l0,0C29.1,35.6,31.1,35.9,31.8,36L31.8,36z"/>
	<path d="M31.6,38.9c-0.8-0.1-1.6,0.7-2.5,0.1c0.9-0.4,1.8-0.6,2.5-1.1C32,38.2,31.5,38.5,31.6,38.9L31.6,38.9z"/>
	<path d="M41.4,46.6c0.7,0.1,1.3,0.1,2,0.1C44,48,41.9,47.5,41.4,46.6L41.4,46.6z"/>
	<path d="M39.5,74.2c-0.6-0.3-1.3-0.5-1.9-0.7c1.1-0.3,2.1-0.2,3.6-0.6C40.4,73.6,39.8,73.8,39.5,74.2L39.5,74.2z"/>
	<path d="M72.2,56.8c1-0.3,1.7-0.3,3.1,0.3C74,57.2,73.1,57.1,72.2,56.8z"/>
	<path d="M27.2,36.9c0.9-0.2,1.7-0.2,2.5,0.2l0,0C29.1,38.1,28.3,38.1,27.2,36.9L27.2,36.9z"/>
	<path d="M29.9,45.8c0.9,0.3,1.9-0.5,3.1,0.1C31.8,45.9,30.8,46.6,29.9,45.8z"/>
	<path d="M81.4,15.7c-0.9-0.1-1.5,0.1-2.1-0.4C80.1,14.8,80.1,14.8,81.4,15.7z"/>
	<path d="M86.5,23.6c1.4-0.9,2.1-0.7,2.1,0.5l-0.1,0C87.8,24.2,87.1,24.1,86.5,23.6L86.5,23.6z"/>
	<path d="M66.7,28.9c0.7,0.5,1.4,0.9,2.2,1.2c-0.9,0.3-1.5,0.1-2.1-0.2C66.5,29.5,66.7,29.2,66.7,28.9L66.7,28.9z"/>
	<path d="M69.5,78c0.7-0.6,1.5-0.6,2.4-0.3c-0.4,0.6-1,0.6-1.4,0.9C70.2,78.3,69.8,78.1,69.5,78L69.5,78z"/>
	<path d="M23.8,19.7c0.7-0.8,1.4-1.4,2.7-1C25.5,19.2,24.8,19.8,23.8,19.7L23.8,19.7z"/>
	<path d="M65.2,32.4"/>
	<path d="M75.7,47.3c0.8,0.1,1.5-0.1,2.2-0.5C77.5,47.8,76.8,48,75.7,47.3z"/>
	<path d="M28.1,67.5c-0.7,0.2-1.2,0.1-1.8-0.1C27.4,66.7,27.4,66.7,28.1,67.5z"/>
	<path d="M30.8,31.4c0.1,1-0.4,1.3-1.3,1.4C29.4,31.9,29.9,31.5,30.8,31.4L30.8,31.4z"/>
	<path d="M22.5,26.7c-0.5-0.2-1.1-0.4-1.6-0.7C21.5,24.8,22.5,26,22.5,26.7L22.5,26.7z"/>
	<path d="M59.9,36.7c0.3,0,0.7,0,1,0.3c-0.3,0.7-0.9,0.5-1.5,0.7C59.3,37.2,59.8,37.1,59.9,36.7L59.9,36.7z"/>
	<path d="M65.2,53.2c-0.5,0.6-1,0.9-1.7,0.6C63.7,52.9,64.6,53.4,65.2,53.2z"/>
	<path d="M20.8,81.7c0-0.6,0.1-1.2,0.6-1.6C21.9,81.4,21.9,81.4,20.8,81.7L20.8,81.7z"/>
	<path d="M84.2,14.4c0.8-0.5,1.6-0.5,2.6-0.1C85.9,14.8,85,14.9,84.2,14.4L84.2,14.4z"/>
	<path d="M79.6,82c0.1-0.3,0.2-0.7,0.4-1.1c0.5-0.1,0.7,0.3,1,0.6C80.6,82.1,80.1,82,79.6,82L79.6,82z"/>
	<path d="M77.3,79.3c-0.7,0-1.4,0.8-2.1,0C75.9,78.9,76.6,78.8,77.3,79.3L77.3,79.3z"/>
	<path d="M76.9,33.4c0.7,0,1.5,0.1,2.7,0.2C78.3,33.9,77.6,33.7,76.9,33.4z"/>
	<path d="M67.3,35.8c0.4-0.9,0.9-1,1.5-0.3C68.5,36.1,67.9,35.8,67.3,35.8z"/>
	<path d="M68,21.5c-0.4-0.2-0.8-0.4-1.3-0.7c0.6-0.7,1.1-0.5,1.8-0.1l0,0C68.3,21,68.1,21.2,68,21.5L68,21.5z"/>
	<path d="M62.8,78.9c0.6-0.4,1.3-0.5,2.3-0.3C64.3,78.9,63.6,79.1,62.8,78.9z"/>
	<path d="M66,19.7c-0.2,0.9-0.8,1.2-1.6,0.9C64.8,19.9,65.3,19.7,66,19.7L66,19.7z"/>
	<path d="M28.1,46.3c-0.8,0.6-0.8,0.6-1.3,0.5C27.1,46.3,27.6,46.1,28.1,46.3z"/>
	<path d="M28.4,42.6"/>
	<path d="M45.2,70.1c-0.8-0.3-0.6-0.9-0.4-1.5C45.5,68.9,45.6,69.4,45.2,70.1L45.2,70.1z"/>
	<path d="M90.9,55.8c0.7-0.5,1.2-0.3,1.7,0.6C92,56.3,91.4,56.1,90.9,55.8L90.9,55.8z"/>
	<path d="M91.6,22.3C90.9,20,93,21.6,91.6,22.3L91.6,22.3z"/>
	<path d="M89.5,72c-0.5,0.3-0.8-0.2-1.2-0.3C89.1,71.6,89.1,71.6,89.5,72z"/>
	<path d="M87,72.3"/>
	<path d="M12.8,52.1c-0.7,0.5-1.4,0.6-2.1,0.3l0,0C11.4,51.9,12.2,52.1,12.8,52.1L12.8,52.1z"/>
	<path d="M16.5,15.4c0.4-0.7,0.8-0.9,1.7-1.1C17.6,14.9,17.2,15.1,16.5,15.4z"/>
	<path d="M45.4,10.6c-0.7,0.3-1.2,0.1-1.8-0.1C44.3,10.1,44.7,10,45.4,10.6z"/>
	<path d="M79.9,52.1"/>
	<path d="M76.7,75.6c0-0.5-0.1-0.9,0.2-1.3C77.7,74.9,77.7,75.1,76.7,75.6L76.7,75.6z"/>
	<path d="M17.2,49c-0.7-0.5-0.7-0.5,0-1.4C17.8,47.7,17.8,48.2,17.2,49z"/>
	<path d="M73.6,60.4c0.4-0.4,0.8-0.3,1.3-0.2c0.1,0.4-0.1,0.6-0.3,0.8C74.1,61.1,74.2,60.2,73.6,60.4L73.6,60.4z"/>
	<path d="M74.1,58.8c-0.4,0.4-0.8,0.3-1.3,0.2C73.2,58.4,73.6,58.3,74.1,58.8L74.1,58.8z"/>
	<path d="M18.5,44c0.9-0.2,1.4-0.3,2.3-0.5C20,44.1,19.5,44.3,18.5,44z"/>
	<path d="M69.7,20c-0.2,0.3-0.3,0.5-0.5,0.8c-0.3,0-0.6-0.1-0.8-0.1l0,0C68.6,19.9,69,19.6,69.7,20L69.7,20z"/>
	<path d="M20.5,84.7c0.9-0.2,1,0.4,1.6,1.1C21.2,85.6,20.8,85.2,20.5,84.7z"/>
	<path d="M28.8,19.2C28.4,19.7,28,20,27.3,20C27.5,19.1,28.2,19.2,28.8,19.2L28.8,19.2z"/>
	<path d="M77.3,60.7c-0.3,0.7-0.8,0.8-1.4,0.6C76.3,60.7,76.8,60.6,77.3,60.7L77.3,60.7z"/>
	<path d="M81.8,74.3c1.1-0.3,1.1-0.3,1.5,0.4C82.8,74.4,82.3,74.3,81.8,74.3L81.8,74.3z"/>
	<path d="M14.2,14.1C15.2,12.9,15.8,14.9,14.2,14.1L14.2,14.1z"/>
	<path d="M19.5,52.6c-0.4-0.4-1-0.1-1.3-0.6C18.9,51.6,19.4,51.8,19.5,52.6L19.5,52.6z"/>
	<path d="M27.8,45.3c-0.9,0.3-1.3,0.2-1.9,0.1C26.6,44.8,26.9,45.3,27.8,45.3z"/>
	<path d="M29,40.4C28.5,41.8,27,40.2,29,40.4L29,40.4z"/>
	<path d="M40.8,67.5c-0.4,0.3-0.8,0.3-1.3,0.3C39.9,67.3,39.9,67.3,40.8,67.5z"/>
	<path d="M52.3,45.6"/>
	<path d="M57.9,41.5c0.1,0.2,0.2,0.3,0.3,0.5c-0.9,0.3-0.9,0.3-1.7,0.1C56.9,41.6,57.6,42.1,57.9,41.5L57.9,41.5z"/>
	<path d="M61.3,51.7c0.6,0.1,1.3-0.1,2.1,0.3C62.6,52.2,61.9,52.3,61.3,51.7L61.3,51.7z"/>
	<path d="M68.3,17.6"/>
	<path d="M70.5,37.6c0.1-0.4,0.5-0.6,0.7-0.9C71.3,37.4,71.3,37.4,70.5,37.6z"/>
	<path d="M74.1,13.3"/>
	<path d="M74.6,18.8"/>
	<path d="M75.2,48.9c-0.2,0.6-0.7,0.7-1.3,0.3C74.3,48.7,74.8,49,75.2,48.9L75.2,48.9z"/>
	<path d="M10.3,53.6C8.5,54.1,9.4,52.7,10.3,53.6L10.3,53.6z"/>
	<path d="M11.3,50.2"/>
	<path d="M15.7,47.5"/>
	<path d="M18.9,21.1"/>
	<path d="M18.5,48.6c0.3-0.2,0.6-0.2,1-0.2C19.2,48.9,18.9,48.8,18.5,48.6z"/>
	<path d="M17.1,79.3"/>
	<path d="M21.6,47.4"/>
	<path d="M23.6,17.3"/>
	<path d="M66.9,37.6c0.9-0.4,0.9-0.4,1.3,0.3C67.6,38.1,67.3,37.6,66.9,37.6L66.9,37.6z"/>
	<path d="M70.4,29.1C69.7,30.1,69,27.6,70.4,29.1L70.4,29.1z"/>
	<path d="M70.7,12.6c0.2-1,0.2-1,1.1-1C71.4,12,71,12.3,70.7,12.6L70.7,12.6z"/>
	<path d="M72.4,49"/>
	<path d="M75.8,58.9c-0.6,0-1.1-0.1-1.7-0.1l0,0C74.8,58.2,75.3,58.2,75.8,58.9L75.8,58.9z"/>
	<path d="M77.3,17c0.3-0.5,0.6-0.7,1-0.4C78.1,16.9,77.8,17,77.3,17z"/>
	<path d="M77.5,26.1"/>
	<path d="M35.8,13.5c0.3,0.3,0.6,0.5,0.9,0.7C35.8,14.5,35.6,14.3,35.8,13.5L35.8,13.5z"/>
	<path d="M88.4,25.8c-0.5-0.1-1.1-0.1-1.6-0.2C87.4,25.3,88,25.3,88.4,25.8L88.4,25.8z"/>
	<path d="M26.2,65.4c0.7-0.4,0.9,0,1.2,0.3C26.8,66,26.7,65.4,26.2,65.4z"/>
	<path d="M35.7,90.2"/>
	<path d="M22.7,89.5"/>
	<path d="M36.1,70.2c0.5-0.4,0.8-0.1,1.2,0.1C36.9,70.2,36.5,70.2,36.1,70.2z"/>
	<path d="M65.7,25c-0.3,0.1-0.6,0.1-1,0.2C65.3,24.4,65.3,24.4,65.7,25L65.7,25z"/>
	<path d="M24.5,45.6c-0.4,0.2-0.8-0.3-0.6-0.7C24.3,45,24.5,45.2,24.5,45.6z"/>
	<path d="M25.6,16.5c0.1,0.3,0.3,0.6,0.4,0.9C25.1,17.3,25.1,17.2,25.6,16.5L25.6,16.5z"/>
	<path d="M24.5,40.4c-0.7,0.8-1.3,0.2-0.2-0.2C24.4,40.3,24.5,40.3,24.5,40.4z"/>
	<path d="M25.3,12.2"/>
	<path d="M22.6,42.8C22.2,44.2,21.3,43.1,22.6,42.8L22.6,42.8z"/>
	<path d="M22.4,44.6"/>
	<path d="M12.8,22c0.1-0.3,0.3-0.4,0.5-0.3C13.2,22,13.1,22.1,12.8,22z"/>
	<path d="M14.2,14.1C13.9,14.9,13.2,14.3,14.2,14.1L14.2,14.1z"/>
	<path d="M17.4,21.2c-0.2,0.4-0.6,0.1-0.1-0.3L17.4,21.2z"/>
	<path d="M17.8,16.8"/>
	<path d="M19.7,12.8C20.1,11.5,20.6,11.9,19.7,12.8L19.7,12.8z"/>
	<path d="M20.5,14.1c-0.2-0.6-0.2-0.6,0.4-0.7C21,13.8,20.5,13.8,20.5,14.1L20.5,14.1z"/>
	<path d="M22.6,42.8c0.3-0.2,0.4-0.8,0.9-0.5C23.4,42.9,22.9,42.7,22.6,42.8L22.6,42.8z"/>
	<path d="M24.8,42.9"/>
	<path d="M27.3,10.2"/>
	<path d="M29,10.3"/>
	<path d="M30,20.5c-0.8-0.2-0.8-0.5,0.1-0.8l0,0C30,20,29.9,20.3,30,20.5L30,20.5z"/>
	<path d="M31.2,77.6"/>
	<path d="M37.3,72.2"/>
	<path d="M41.8,10.4"/>
	<path d="M38.3,89.9"/>
	<path d="M59.9,36.7C59,36.4,60.4,35.3,59.9,36.7L59.9,36.7z"/>
	<path d="M56.7,80c0.2-0.4,0.5-0.4,0.7-0.2C57.2,80.2,57,80.3,56.7,80z"/>
	<path d="M59.8,73.1c0.2-0.3,0.4-0.3,0.6-0.1C60.2,73.5,60,73.5,59.8,73.1z"/>
	<path d="M66.2,35.1c0.2-0.3,0.3-0.7,0.8-0.8C67.1,34.9,66.7,35,66.2,35.1L66.2,35.1z"/>
	<path d="M68.1,24.2c-0.2,0.1-0.5,0.2-0.7-0.1C67.7,24.1,67.9,24,68.1,24.2z"/>
	<path d="M69.4,54.8c0.3,0,0.7-0.2,1.3,0C70.1,55.2,69.8,55.2,69.4,54.8L69.4,54.8z"/>
	<path d="M74.1,24.3"/>
	<path d="M72.9,39.7"/>
	<path d="M74.3,32.3c0,0.3-0.1,0.6-0.1,1C73.6,32.8,73.6,32.8,74.3,32.3L74.3,32.3z"/>
	<path d="M73.3,43.5c0.1-0.3,0.2-0.4,0.5-0.1C73.7,43.7,73.6,43.8,73.3,43.5z"/>
	<path d="M71.2,80.9c0.5-0.3,0.8-0.2,1.2-0.1C72,81.1,71.7,80.9,71.2,80.9z"/>
	<path d="M75.5,22.6"/>
	<path d="M76.7,14.9c0,0,0.2,0.1,0.3,0.1c-0.1,0.3-0.2,0.4-0.5,0.1L76.7,14.9z"/>
	<path d="M77.1,8.6"/>
	<path d="M77,29.2C76.3,29.9,75.6,28.4,77,29.2L77,29.2z"/>
	<path d="M78.2,22.8c0.1,0.1,0.1,0.2,0.2,0.2C77.7,23.5,78.2,22.8,78.2,22.8z"/>
	<path d="M76.7,75.6C75.6,76.4,75.4,75.4,76.7,75.6L76.7,75.6z"/>
	<path d="M77.3,60.7c0.2-0.5,0.5-0.6,0.9-0.4C78.1,60.7,77.8,60.8,77.3,60.7L77.3,60.7z"/>
	<path d="M79.1,48.4"/>
	<path d="M78.7,70.9c-0.3,0.2-0.5,0.1-0.8,0C78.2,70.7,78.4,70.7,78.7,70.9z"/>
	<path d="M79.8,42.6c0.2-0.5,0.5-0.7,0.9-0.5C80.6,42.6,80.3,42.7,79.8,42.6L79.8,42.6z"/>
	<path d="M79.3,59.6c0.4-0.3,0.6-0.2,0.7,0.2C79.6,60.1,79.4,60,79.3,59.6z"/>
	<path d="M80,72.2"/>
	<path d="M88.6,14.6c0.1-0.1,0.2-0.1,0.3-0.2C89,14.8,88.9,14.9,88.6,14.6z"/>
	<path d="M34.4,94.2C34.1,94.9,33.5,94.8,34.4,94.2L34.4,94.2z"/>
	<path d="M35.8,92.2c0.2-0.2,0.5-0.4,0.8-0.2C36.3,92.3,36,92.2,35.8,92.2L35.8,92.2z"/>
	<path d="M37.2,95.6c-0.2,0.3-0.5,0.5-0.9,0.2C36.6,95.5,36.9,95.7,37.2,95.6L37.2,95.6z"/>
	<path d="M38.9,70.6l0,0.1c0,0-0.2,0-0.3,0C38.5,70.5,38.6,70.5,38.9,70.6z"/>
	<path d="M40.6,70.3"/>
	<path d="M42.4,67.9"/>
	<path d="M54.7,4.3"/>
	<path d="M55.5,77.6c0,0.3-0.1,0.3-0.3,0.3C55.2,77.6,55.3,77.5,55.5,77.6z"/>
	<path d="M55.6,75c0-0.4,0.2-0.6,0.5-0.6C56.2,74.7,56,74.9,55.6,75L55.6,75z"/>
	<path d="M60.6,25.6c0.3,0,0.6,0.1,1,0.1C61.1,26.1,60.9,25.7,60.6,25.6L60.6,25.6z"/>
	<path d="M62.9,41.9c-0.2,0.2-0.5,0.4-0.8,0.2C62.3,41.7,62.6,41.9,62.9,41.9L62.9,41.9z"/>
	<path d="M66.1,19.7c0.2-0.3,0.5-0.4,0.8-0.2C66.6,19.8,66.3,19.7,66.1,19.7L66.1,19.7z"/>
	<path d="M66,76.3c0.1,0.2,0,0.3-0.3,0.3C65.6,76.3,65.7,76.2,66,76.3z"/>
	<path d="M68.4,39.2c0.1-0.2,0.2-0.2,0.4,0C68.8,39.3,68.6,39.3,68.4,39.2z"/>
	<path d="M69.4,31.4c0,0-0.1-0.1-0.1-0.1c0.1-0.3,0.3-0.3,0.4-0.1C69.7,31.1,69.5,31.3,69.4,31.4z"/>
	<path d="M69.5,37.3c0.3,0,0.1,0.5-0.3,0.2L69.5,37.3z"/>
	<path d="M67.1,78.3c0.3,0,0.1,0.2-0.1,0.1L67.1,78.3z"/>
	<path d="M70.7,30.8C69.9,30.5,71.2,29.6,70.7,30.8L70.7,30.8z"/>
	<path d="M68.1,80c0.1-0.3,0.3-0.4,0.5-0.5C68.9,80,68.5,80,68.1,80L68.1,80z"/>
	<path d="M69.2,75.8c0,0.1,0.1,0.2,0.1,0.3C68.9,76.1,69,75.8,69.2,75.8z"/>
	<path d="M71.9,45.1"/>
	<path d="M76,34.7"/>
	<path d="M73.7,72.3l0.1,0.3c-0.2,0.1-0.3,0-0.3-0.2C73.5,72.3,73.6,72.3,73.7,72.3z"/>
	<path d="M75.7,42.1"/>
	<path d="M75.2,49C75.9,48.2,76,48.8,75.2,49L75.2,49z"/>
	<path d="M77.4,52.7"/>
	<path d="M78.9,73.5"/>
	<path d="M81.2,52.2C80.7,52.9,80.2,52.5,81.2,52.2L81.2,52.2z"/>
	<path d="M80.2,70.5"/>
	<path d="M81.2,52.3c0.2-0.3,0.5-0.4,0.9-0.3C81.8,52.4,81.5,52.2,81.2,52.3L81.2,52.3z"/>
	<path d="M80.6,77.1c0.3,0.1-0.1,0.5-0.4,0.1C80.3,77.2,80.4,77.2,80.6,77.1z"/>
	<path d="M80.9,75c0-0.3,0-0.6,0.1-0.8l0,0c0.3,0,0.6,0.1,0.9,0.1l0,0C81.5,74.5,81.2,74.7,80.9,75L80.9,75z"/>
	<path d="M88.4,25.8C89.4,25.6,89,26.4,88.4,25.8L88.4,25.8z"/>
	<path d="M6.5,47.7"/>
	<path d="M8.6,48.2c0.1,0.1,0.1,0.3-0.2,0.3C8.2,48.4,8.3,48.3,8.6,48.2z"/>
	<path d="M12.1,48.8"/>
	<path d="M12.6,55.2c-0.3,0.1-0.4,0.1-0.4-0.1C12.4,55,12.6,55,12.6,55.2z"/>
	<path d="M15.5,21.2c0.3-0.2,0.4-0.1,0.5,0.3C15.7,21.6,15.5,21.5,15.5,21.2z"/>
	<path d="M19,49.8c0,0.1,0,0.2,0,0.2C18.2,50,18.9,49.7,19,49.8z"/>
	<path d="M20.3,36.4c0.2,0.2-0.1,0.4-0.3,0.2L20.3,36.4z"/>
	<path d="M22.5,12.8"/>
	<path d="M22.4,34C22.4,33.9,22.3,33.9,22.4,34C22.6,33.6,22.7,33.7,22.4,34z"/>
	<path d="M27.8,35.4c0.1,0.1,0.2,0.1,0.2,0.1c-0.1,0.2-0.2,0.1-0.4,0C27.7,35.5,27.7,35.5,27.8,35.4z"/>
	<path d="M28.9,47.4c-0.2,0.2-0.4,0.4-0.7,0.3C28.3,47.2,28.7,47.5,28.9,47.4L28.9,47.4z"/>
	<path d="M28.9,47.4c0.2-0.3,0.5-0.3,0.9-0.2C29.5,47.5,29.2,47.4,28.9,47.4L28.9,47.4z"/>
	<path d="M30.8,34"/>
	<path d="M30.8,40"/>
	<path d="M11.8,12.1"/>
	<path d="M12.1,15.6c-0.1-0.1-0.3-0.2-0.1-0.5C12,15.3,12,15.4,12.1,15.6L12.1,15.6z"/>
	<path d="M9.9,50.3c-0.1,0-0.2-0.1-0.1-0.2C10,50.1,10,50.2,9.9,50.3z"/>
	<polygon points="15.4,52.1 15.3,52.1 15.3,52 	"/>
	<polygon points="19.2,11.5 19.2,11.6 19.1,11.5 	"/>
	<polygon points="19.5,40.3 19.5,40.4 19.4,40.3 	"/>
	<path d="M22.1,20.1C22.2,20.2,22.2,20.2,22.1,20.1c0,0.2-0.1,0.2-0.1,0.2S22.1,20.1,22.1,20.1z"/>
	<path d="M22.3,19"/>
	<path d="M22.7,14.4"/>
	<path d="M23.1,24.7c0,0,0,0.1,0,0.1c-0.1,0.1-0.2,0.1-0.2-0.1C22.9,24.8,23,24.8,23.1,24.7z"/>
	<path d="M23.7,20.2c0.1,0.1,0.3,0.1,0.4,0.2C24,20.4,23.9,20.3,23.7,20.2L23.7,20.2z"/>
	<path d="M24.9,15.2C24.4,15.1,24.5,14.6,24.9,15.2L24.9,15.2z"/>
	<polygon points="23.1,47.7 23,47.6 23.2,47.6 	"/>
	<polygon points="25.3,21.7 25.3,21.6 25.4,21.7 	"/>
	<path d="M25.7,16.5c0.1-0.2,0.3-0.3,0.4-0.2C26,16.6,25.8,16.5,25.7,16.5L25.7,16.5z"/>
	<path d="M27.4,16.5"/>
	<polygon points="23.3,86.2 23.3,86.1 23.5,86.2 	"/>
	<path d="M24.6,65.3"/>
	<path d="M26.5,40.6C26.9,40.2,27.3,40.6,26.5,40.6L26.5,40.6z"/>
	<path d="M27.6,44.1C27.6,44.2,27.6,44.2,27.6,44.1c0,0.1-0.2,0.2-0.2,0C27.5,44.1,27.5,44.1,27.6,44.1z"/>
	<path d="M28,48.6C27.6,48.9,27.3,48.6,28,48.6L28,48.6z"/>
	<path d="M30.7,15.6C30.2,15.5,30.2,15.1,30.7,15.6L30.7,15.6z"/>
	<path d="M29,40.4c0.1-0.3,0.3-0.3,0.5-0.2C29.3,40.2,29.1,40.3,29,40.4L29,40.4z"/>
	<path d="M30.8,47.7c0.1-0.1,0.2-0.1,0.3,0C31,47.9,30.9,47.8,30.8,47.7z"/>
	<path d="M33.8,37c-0.3,0.2-0.6,0.4-0.8-0.1l0,0C33.2,36.9,33.5,37,33.8,37L33.8,37z"/>
	<path d="M32.8,68.8c-0.1,0.1-0.2,0.1-0.3,0.2C32.5,68.7,32.7,68.9,32.8,68.8L32.8,68.8z"/>
	<path d="M33.7,68.4c-0.2,0.3-0.5,0.3-0.9,0.3l0,0C33.1,68.6,33.4,68.4,33.7,68.4L33.7,68.4z"/>
	<polygon points="37.6,67.3 37.4,67.3 37.5,67.2 	"/>
	<path d="M43.7,8.4c0,0.1-0.1,0.1-0.2,0.1C43.5,8.5,43.6,8.3,43.7,8.4z"/>
	<path d="M44.6,48.1C44.3,48.5,43.9,48.1,44.6,48.1L44.6,48.1z"/>
	<path d="M47.7,3.6c0,0,0.1-0.3,0.2-0.5c0.1,0.3-0.1,0.3-0.1,0.3L47.7,3.6z"/>
	<polygon points="46.6,68.7 46.4,68.8 46.5,68.6 	"/>
	<path d="M57.2,76.7c0.1-0.2,0.3-0.3,0.4-0.2c-0.2,0-0.3,0.1-0.3,0.1L57.2,76.7z"/>
	<path d="M60.3,43C60.2,41.9,61.2,43,60.3,43L60.3,43z"/>
	<path d="M59.5,79.1C59.6,79.1,59.6,79.1,59.5,79.1l-0.1,0C59.4,79.1,59.5,79.1,59.5,79.1z"/>
	<path d="M60.6,56.7c0.1-0.2,0.2-0.3,0.4-0.2c-0.1,0.1-0.3,0.1-0.3,0.1L60.6,56.7z"/>
	<path d="M63.6,26.2c-0.1-0.1-0.3-0.1-0.3-0.1C63.3,25.9,63.5,26,63.6,26.2L63.6,26.2z"/>
	<polygon points="64.3,75.7 64.3,75.8 64.2,75.7 	"/>
	<polygon points="67.3,44.1 67.2,44 67.3,44 	"/>
	<path d="M68.3,34c0,0,0,0.1-0.1,0.1c-0.1-0.1-0.1-0.1-0.1-0.1c0-0.1,0-0.1,0-0.1C68.2,33.9,68.3,34,68.3,34z"/>
	<path d="M70.3,0.6c0.1-0.2,0.3-0.3,0.4-0.2C70.5,0.4,70.4,0.5,70.3,0.6L70.3,0.6z"/>
	<path d="M69.8,20c0.1-0.2,0.2-0.3,0.4-0.2C70.2,19.8,69.9,19.9,69.8,20L69.8,20z"/>
	<polygon points="67.7,59.1 67.7,59.3 67.6,59.2 	"/>
	<polygon points="70.9,15.4 70.8,15.3 71,15.2 	"/>
	<path d="M70.7,24.2C70.6,24.6,70.1,24.6,70.7,24.2L70.7,24.2z"/>
	<path d="M69.5,54.7C68.7,54.6,69.1,54.3,69.5,54.7L69.5,54.7z"/>
	<path d="M72.2,16.9c0.1,0.1,0,0.2-0.1,0.2C72,17,72,16.9,72.2,16.9z"/>
	<path d="M71.3,33.4C71.7,33,72.1,33.3,71.3,33.4L71.3,33.4z"/>
	<polygon points="72.7,18.7 72.8,18.7 72.8,18.8 	"/>
	<path d="M70.2,56.1c0.1-0.2,0.3-0.3,0.4-0.1C70.5,56,70.3,56,70.2,56.1L70.2,56.1z"/>
	<polygon points="72.8,36.6 72.7,36.5 72.8,36.5 	"/>
	<path d="M74.4,26.2c0,0,0,0.1,0,0.1c-0.1,0.1-0.2,0-0.2-0.1C74.3,26.2,74.3,26.2,74.4,26.2z"/>
	<polygon points="74.5,28.3 74.7,28.4 74.5,28.4 	"/>
	<polygon points="75.6,24.4 75.6,24.2 75.8,24.3 	"/>
	<polygon points="76.3,16.9 76.1,16.9 76.2,16.8 	"/>
	<path d="M72.4,79.2"/>
	<path d="M74.1,47.6C74.5,47.2,74.8,47.6,74.1,47.6L74.1,47.6z"/>
	<path d="M76.5,20.2c0,0-0.1,0.1-0.2,0.1C76.3,20.1,76.4,20.1,76.5,20.2z"/>
	<polygon points="73.7,80.4 73.6,80.3 73.8,80.3 	"/>
	<path d="M75.8,58.9c0.2,0.1,0.3,0.2,0.2,0.4c-0.1-0.1-0.1-0.3-0.1-0.3L75.8,58.9z"/>
	<path d="M77.8,30.1C78.2,29.7,78.6,30,77.8,30.1L77.8,30.1z"/>
	<path d="M76.5,57.5c0.1-0.1,0.2-0.1,0.3,0.1C76.7,57.6,76.6,57.6,76.5,57.5z"/>
	<polygon points="77.2,51.4 77,51.3 77.2,51.3 	"/>
	<path d="M77,59.4C77.5,59,77.5,59.4,77,59.4L77,59.4z"/>
	<path d="M79.3,30.5c-0.1,0.2-0.3,0-0.1-0.1L79.3,30.5z"/>
	<polygon points="80.2,33.4 80.3,33.6 80.1,33.6 	"/>
	<path d="M78.4,74.9c-0.1,0.1-0.2,0.3-0.2,0.4C78.1,75.1,78.2,74.9,78.4,74.9L78.4,74.9z"/>
	<path d="M78.9,74.5c0.1-0.2,0.3-0.3,0.3-0.3S79,74.4,78.9,74.5L78.9,74.5z"/>
	<polygon points="82.7,31.1 82.5,31 82.7,31 	"/>
	<polygon points="81,71.5 81.2,71.5 81.2,71.6 	"/>
	<polygon points="84.5,78 84.3,78 84.4,77.9 	"/>
	<polygon points="85.2,72.6 85.3,72.6 85.1,72.7 	"/>
	<path d="M86.3,63.5c0,0,0.1,0.1,0.1,0.1c0,0-0.2,0.1-0.3-0.1L86.3,63.5z"/>
	<polygon points="12,15.6 12.2,15.7 12.1,15.6 	"/>
	<polygon points="10.2,53.6 10.3,53.7 10.3,53.6 	"/>
	<polygon points="10.7,52.3 10.7,52.4 10.8,52.4 	"/>
	<path d="M12.9,52.1c0.1-0.1,0.1-0.1,0.2-0.2C13,52,13,52.1,12.9,52.1L12.9,52.1z"/>
	<polygon points="18.4,13.1 18.4,13 18.4,13.1 	"/>
	<polygon points="18.4,13.1 18.5,13.2 18.4,13.1 	"/>
	<polygon points="19.7,12.8 19.6,12.9 19.7,12.8 	"/>
	<polygon points="20.4,14.1 20.5,14.2 20.5,14.1 	"/>
	<path d="M22,27.8c0,0-0.1,0.1-0.1,0.1C21.9,27.9,22,27.9,22,27.8L22,27.8z"/>
	<polygon points="21.7,49.4 21.6,49.3 21.7,49.4 	"/>
	<path d="M23.8,20.1c-0.2-0.1-0.1-0.3,0-0.4l0,0C23.7,19.8,23.7,20,23.8,20.1L23.8,20.1z"/>
	<path d="M21.7,49.4c0,0,0.1,0,0.1,0.1C21.8,49.5,21.8,49.4,21.7,49.4L21.7,49.4z"/>
	<path d="M24.9,15.2C24.9,15.3,25,15.3,24.9,15.2C25,15.3,25,15.2,24.9,15.2L24.9,15.2z"/>
	<path d="M26.1,40.6c0,0-0.1-0.1-0.1-0.1C26,40.5,26,40.6,26.1,40.6L26.1,40.6z"/>
	<path d="M26.1,40.6c0.1,0,0.3,0,0.5,0l0,0C26.3,40.8,26.1,40.8,26.1,40.6L26.1,40.6z"/>
	<path d="M27.1,36.9c0,0,0,0.1-0.1,0.1C27.1,37,27.1,37,27.1,36.9L27.1,36.9z"/>
	<path d="M28,48.6l0.1-0.2C28.1,48.4,28,48.5,28,48.6L28,48.6z"/>
	<path d="M31.6,32.7C31.6,32.7,31.5,32.7,31.6,32.7C31.5,32.7,31.6,32.7,31.6,32.7L31.6,32.7z"/>
	<polygon points="30.4,67.8 30.3,67.9 30.4,67.8 	"/>
	<polygon points="30.4,67.8 30.5,67.7 30.4,67.8 	"/>
	<path d="M33,36.9c-0.2-0.1-0.4-0.2-0.4-0.5l0,0C32.8,36.5,32.9,36.7,33,36.9L33,36.9z"/>
	<path d="M33.8,37c0,0,0.1-0.1,0.1-0.2C33.8,36.9,33.8,36.9,33.8,37L33.8,37z"/>
	<polygon points="35.8,13.5 35.9,13.4 35.8,13.5 	"/>
	<path d="M33.7,68.5c0.1-0.1,0.3-0.3,0.4-0.4l0,0C34,68.2,33.8,68.3,33.7,68.5L33.7,68.5z"/>
	<path d="M34.1,68.1c0,0,0.1-0.1,0.1-0.1C34.2,68,34.1,68,34.1,68.1L34.1,68.1z"/>
	<polygon points="37.2,47.5 37.1,47.7 37.2,47.6 	"/>
	<polygon points="43.3,7.4 43.2,7.5 43.3,7.4 	"/>
	<polygon points="37.2,95.7 37.3,95.6 37.2,95.6 	"/>
	<polygon points="43.3,7.4 43.4,7.3 43.3,7.4 	"/>
	<path d="M41.4,46.2c0,0.1,0,0.3,0,0.4l0,0C41.2,46.5,41.2,46.3,41.4,46.2L41.4,46.2z"/>
	<path d="M41.9,45.8c-0.1,0.1-0.3,0.3-0.5,0.4l0,0C41.6,46.1,41.7,46,41.9,45.8L41.9,45.8z"/>
	<polygon points="42.5,72.8 42.6,72.9 42.5,72.8 	"/>
	<polygon points="53.9,3.5 53.8,3.6 53.9,3.6 	"/>
	<polygon points="57.7,2.2 57.6,2.3 57.7,2.2 	"/>
	<polygon points="57.7,2.2 57.8,2.1 57.7,2.2 	"/>
	<polygon points="57.1,76.7 57,76.8 57.2,76.7 	"/>
	<polygon points="60.3,42.9 60.2,43 60.3,43 	"/>
	<polygon points="66.8,39.7 66.9,39.6 66.7,39.6 	"/>
	<polygon points="67.2,56.7 67.3,56.6 67.2,56.7 	"/>
	<path d="M68.5,44.3c0,0.1-0.1,0.1-0.1,0.1L68.5,44.3L68.5,44.3z"/>
	<polygon points="68.5,44.4 68.6,44.3 68.5,44.3 	"/>
	<path d="M70.7,24.2l0.1-0.1C70.8,24.1,70.7,24.1,70.7,24.2L70.7,24.2z"/>
	<polygon points="69.5,77.9 69.4,78.1 69.5,78 	"/>
	<polygon points="69.8,91.2 69.7,91.3 69.8,91.3 	"/>
	<path d="M74.3,32.3C74.4,32.1,74.4,32.1,74.3,32.3L74.3,32.3z"/>
	<polygon points="75.5,21.2 75.4,21.1 75.4,21.2 	"/>
	<polygon points="74.1,47.6 74,47.7 74.1,47.6 	"/>
	<polygon points="75.4,21.2 75.6,21.3 75.5,21.2 	"/>
	<path d="M77.4,28.8c-0.2,0.1-0.3,0.3-0.5,0.4l0,0C77.2,29.1,77.3,28.9,77.4,28.8L77.4,28.8z"/>
	<path d="M77,59.4C77,59.5,76.9,59.5,77,59.4C76.9,59.5,77,59.5,77,59.4L77,59.4z"/>
	<path d="M78.9,31.8c0,0-0.1-0.1-0.1-0.1C78.8,31.7,78.8,31.8,78.9,31.8L78.9,31.8z"/>
	<polygon points="78.9,31.8 79,31.9 78.9,31.8 	"/>
	<polygon points="77.2,80.6 77.1,80.7 77.2,80.6 	"/>
	<polygon points="79.8,42.6 79.7,42.7 79.8,42.6 	"/>
	<path d="M78.4,74.9c0,0,0.3-0.3,0.5-0.4l0,0C78.7,74.6,78.5,74.7,78.4,74.9L78.4,74.9z"/>
	<polygon points="80.9,75 80.8,75.1 80.9,75 	"/>
	<path d="M81,73.8c0,0.1,0,0.3,0,0.4l0,0C80.7,74.1,80.7,73.9,81,73.8L81,73.8z"/>
	<path d="M81,73.8l0.1-0.1C81.1,73.7,81,73.7,81,73.8L81,73.8z"/>
	<polygon points="85.1,80.7 85,80.6 85,80.7 	"/>
	<path d="M85,80.7c0,0,0.1,0.1,0.1,0.1C85.1,80.8,85.1,80.7,85,80.7L85,80.7z"/>
	<path d="M61,9.9c-0.6-1.2-2.1,0.9-2.7-0.3c1-1,2.1-0.6,3.2-0.5C61.6,9.7,61.3,9.8,61,9.9L61,9.9z"/>
	<path d="M57.7,8.3c0.3,1.1-0.1,1.5-1.2,1.3C56.7,9,56.8,8.3,57.7,8.3L57.7,8.3z"/>
	<path d="M55.7,10.5c0.2,1,0.2,1-0.9,1.2C54.9,11.2,55.2,10.8,55.7,10.5z"/>
	<path d="M53.6,11.8"/>
	<path d="M57.7,8.4c0.1-0.2,0.3-0.3,0.4-0.1C58,8.3,57.8,8.3,57.7,8.4L57.7,8.4z"/>
	<path d="M63,10.4c-0.1,0.2-0.2,0.3-0.4,0.2C62.7,10.5,62.9,10.5,63,10.4L63,10.4z"/>
	<polygon points="55.6,8.2 55.5,8.3 55.7,8.2 	"/>
	<path d="M55.7,8.2c0,0,0.1-0.1,0.2-0.2C55.8,8.2,55.8,8.2,55.7,8.2L55.7,8.2z"/>
	<polygon points="60.5,10.2 60.4,10.3 60.5,10.2 	"/>
	<path d="M60.5,10.2c0.1-0.1,0.3-0.3,0.5-0.4l0,0C60.8,9.9,60.6,10.1,60.5,10.2L60.5,10.2z"/>
	<path d="M54.9,63.4c0.3,0.1,0,0.2,0,0.2S54.9,63.4,54.9,63.4z"/>
	<path d="M51,62.6c0.1,0,0.3,0.1,0.5,0.1C51.2,62.9,51.2,62.7,51,62.6L51,62.6z"/>
	<path d="M58.3,66C58.7,65.6,58.9,65.9,58.3,66L58.3,66z"/>
	<polygon points="52.7,62.7 52.6,62.8 52.7,62.8 	"/>
	<polygon points="52.7,62.8 52.8,62.7 52.7,62.7 	"/>
	<polygon points="42.7,51 42.8,51 42.8,51.1 	"/>
	<polygon points="48.9,50.6 49.1,50.6 49,50.7 	"/>
	<path d="M52.2,71.4c-0.2,0-0.3-0.1-0.5-0.1C51.9,71.1,52,71.3,52.2,71.4L52.2,71.4z"/>
	<path d="M35.2,22.6C35.1,22.7,35.1,22.7,35.2,22.6L35.2,22.6z"/>
</g>
</svg>
